<mxfile host="app.diagrams.net" modified="2022-09-08T03:36:13.985Z" agent="5.0 (Macintosh; Intel Mac OS X 10_15_7) AppleWebKit/537.36 (KHTML, like Gecko) Chrome/105.0.0.0 Safari/537.36" etag="HwRbyXTYWuuRBhXVIFWr" version="20.2.7" type="github">
  <diagram id="F73w34i6j-NFK2KWD3ty" name="第 1 页">
    <mxGraphModel dx="901" dy="615" grid="0" gridSize="10" guides="1" tooltips="1" connect="1" arrows="1" fold="1" page="1" pageScale="1" pageWidth="827" pageHeight="1169" math="0" shadow="0">
      <root>
        <mxCell id="0" />
        <mxCell id="1" parent="0" />
        <mxCell id="IVAJbTdzAA0MmZZfQ6da-4" value="" style="edgeStyle=orthogonalEdgeStyle;rounded=0;orthogonalLoop=1;jettySize=auto;html=1;" edge="1" parent="1" source="IVAJbTdzAA0MmZZfQ6da-1" target="IVAJbTdzAA0MmZZfQ6da-3">
          <mxGeometry relative="1" as="geometry" />
        </mxCell>
        <mxCell id="IVAJbTdzAA0MmZZfQ6da-31" style="edgeStyle=orthogonalEdgeStyle;curved=1;rounded=0;orthogonalLoop=1;jettySize=auto;html=1;entryX=0;entryY=0.5;entryDx=0;entryDy=0;exitX=0;exitY=0.5;exitDx=0;exitDy=0;" edge="1" parent="1" source="IVAJbTdzAA0MmZZfQ6da-1" target="IVAJbTdzAA0MmZZfQ6da-15">
          <mxGeometry relative="1" as="geometry">
            <Array as="points">
              <mxPoint x="320" y="140" />
              <mxPoint x="320" y="540" />
            </Array>
          </mxGeometry>
        </mxCell>
        <mxCell id="IVAJbTdzAA0MmZZfQ6da-1" value="" style="rounded=1;whiteSpace=wrap;html=1;fillColor=#dae8fc;strokeColor=#6c8ebf;" vertex="1" parent="1">
          <mxGeometry x="400" y="120" width="120" height="40" as="geometry" />
        </mxCell>
        <mxCell id="IVAJbTdzAA0MmZZfQ6da-2" value="PREPARE" style="text;html=1;align=center;verticalAlign=middle;resizable=0;points=[];autosize=1;strokeColor=none;fillColor=none;" vertex="1" parent="1">
          <mxGeometry x="420" y="125" width="80" height="30" as="geometry" />
        </mxCell>
        <mxCell id="IVAJbTdzAA0MmZZfQ6da-8" value="" style="edgeStyle=orthogonalEdgeStyle;rounded=0;orthogonalLoop=1;jettySize=auto;html=1;entryX=0.5;entryY=0;entryDx=0;entryDy=0;" edge="1" parent="1" source="IVAJbTdzAA0MmZZfQ6da-3" target="IVAJbTdzAA0MmZZfQ6da-6">
          <mxGeometry relative="1" as="geometry" />
        </mxCell>
        <mxCell id="IVAJbTdzAA0MmZZfQ6da-35" style="edgeStyle=orthogonalEdgeStyle;curved=1;rounded=0;orthogonalLoop=1;jettySize=auto;html=1;" edge="1" parent="1" source="IVAJbTdzAA0MmZZfQ6da-3" target="IVAJbTdzAA0MmZZfQ6da-19">
          <mxGeometry relative="1" as="geometry" />
        </mxCell>
        <mxCell id="IVAJbTdzAA0MmZZfQ6da-3" value="" style="rounded=1;whiteSpace=wrap;html=1;fillColor=#dae8fc;strokeColor=#6c8ebf;" vertex="1" parent="1">
          <mxGeometry x="400" y="200" width="120" height="40" as="geometry" />
        </mxCell>
        <mxCell id="IVAJbTdzAA0MmZZfQ6da-5" value="SENDHEADER" style="text;html=1;align=center;verticalAlign=middle;resizable=0;points=[];autosize=1;strokeColor=none;fillColor=none;" vertex="1" parent="1">
          <mxGeometry x="405" y="205" width="110" height="30" as="geometry" />
        </mxCell>
        <mxCell id="IVAJbTdzAA0MmZZfQ6da-11" value="" style="edgeStyle=orthogonalEdgeStyle;rounded=0;orthogonalLoop=1;jettySize=auto;html=1;entryX=0.5;entryY=0;entryDx=0;entryDy=0;" edge="1" parent="1" source="IVAJbTdzAA0MmZZfQ6da-6" target="IVAJbTdzAA0MmZZfQ6da-9">
          <mxGeometry relative="1" as="geometry" />
        </mxCell>
        <mxCell id="IVAJbTdzAA0MmZZfQ6da-37" style="edgeStyle=orthogonalEdgeStyle;curved=1;rounded=0;orthogonalLoop=1;jettySize=auto;html=1;" edge="1" parent="1" source="IVAJbTdzAA0MmZZfQ6da-6" target="IVAJbTdzAA0MmZZfQ6da-19">
          <mxGeometry relative="1" as="geometry" />
        </mxCell>
        <mxCell id="IVAJbTdzAA0MmZZfQ6da-6" value="" style="rounded=1;whiteSpace=wrap;html=1;fillColor=#dae8fc;strokeColor=#6c8ebf;" vertex="1" parent="1">
          <mxGeometry x="400" y="280" width="120" height="40" as="geometry" />
        </mxCell>
        <mxCell id="IVAJbTdzAA0MmZZfQ6da-7" value="SENDDATA" style="text;html=1;align=center;verticalAlign=middle;resizable=0;points=[];autosize=1;strokeColor=none;fillColor=none;" vertex="1" parent="1">
          <mxGeometry x="415" y="285" width="90" height="30" as="geometry" />
        </mxCell>
        <mxCell id="IVAJbTdzAA0MmZZfQ6da-14" style="edgeStyle=orthogonalEdgeStyle;rounded=0;orthogonalLoop=1;jettySize=auto;html=1;entryX=0.5;entryY=0;entryDx=0;entryDy=0;" edge="1" parent="1" source="IVAJbTdzAA0MmZZfQ6da-9" target="IVAJbTdzAA0MmZZfQ6da-12">
          <mxGeometry relative="1" as="geometry" />
        </mxCell>
        <mxCell id="IVAJbTdzAA0MmZZfQ6da-38" style="edgeStyle=orthogonalEdgeStyle;curved=1;rounded=0;orthogonalLoop=1;jettySize=auto;html=1;" edge="1" parent="1" source="IVAJbTdzAA0MmZZfQ6da-9" target="IVAJbTdzAA0MmZZfQ6da-19">
          <mxGeometry relative="1" as="geometry" />
        </mxCell>
        <mxCell id="IVAJbTdzAA0MmZZfQ6da-9" value="" style="rounded=1;whiteSpace=wrap;html=1;fillColor=#dae8fc;strokeColor=#6c8ebf;" vertex="1" parent="1">
          <mxGeometry x="400" y="360" width="120" height="40" as="geometry" />
        </mxCell>
        <mxCell id="IVAJbTdzAA0MmZZfQ6da-10" value="RECEHEADER" style="text;html=1;align=center;verticalAlign=middle;resizable=0;points=[];autosize=1;strokeColor=none;fillColor=none;" vertex="1" parent="1">
          <mxGeometry x="405" y="365" width="110" height="30" as="geometry" />
        </mxCell>
        <mxCell id="IVAJbTdzAA0MmZZfQ6da-17" style="edgeStyle=orthogonalEdgeStyle;rounded=0;orthogonalLoop=1;jettySize=auto;html=1;entryX=0.5;entryY=0;entryDx=0;entryDy=0;" edge="1" parent="1" source="IVAJbTdzAA0MmZZfQ6da-12" target="IVAJbTdzAA0MmZZfQ6da-15">
          <mxGeometry relative="1" as="geometry" />
        </mxCell>
        <mxCell id="IVAJbTdzAA0MmZZfQ6da-39" style="edgeStyle=orthogonalEdgeStyle;curved=1;rounded=0;orthogonalLoop=1;jettySize=auto;html=1;entryX=0;entryY=0.5;entryDx=0;entryDy=0;" edge="1" parent="1" source="IVAJbTdzAA0MmZZfQ6da-12" target="IVAJbTdzAA0MmZZfQ6da-18">
          <mxGeometry relative="1" as="geometry" />
        </mxCell>
        <mxCell id="IVAJbTdzAA0MmZZfQ6da-12" value="" style="rounded=1;whiteSpace=wrap;html=1;fillColor=#dae8fc;strokeColor=#6c8ebf;" vertex="1" parent="1">
          <mxGeometry x="400" y="440" width="120" height="40" as="geometry" />
        </mxCell>
        <mxCell id="IVAJbTdzAA0MmZZfQ6da-13" value="RECVDATA" style="text;html=1;align=center;verticalAlign=middle;resizable=0;points=[];autosize=1;strokeColor=none;fillColor=none;" vertex="1" parent="1">
          <mxGeometry x="415" y="445" width="90" height="30" as="geometry" />
        </mxCell>
        <mxCell id="IVAJbTdzAA0MmZZfQ6da-22" style="edgeStyle=orthogonalEdgeStyle;rounded=0;orthogonalLoop=1;jettySize=auto;html=1;entryX=0.5;entryY=0;entryDx=0;entryDy=0;" edge="1" parent="1" source="IVAJbTdzAA0MmZZfQ6da-15" target="IVAJbTdzAA0MmZZfQ6da-21">
          <mxGeometry relative="1" as="geometry" />
        </mxCell>
        <mxCell id="IVAJbTdzAA0MmZZfQ6da-34" style="edgeStyle=orthogonalEdgeStyle;curved=1;rounded=0;orthogonalLoop=1;jettySize=auto;html=1;entryX=1;entryY=0.5;entryDx=0;entryDy=0;" edge="1" parent="1" source="IVAJbTdzAA0MmZZfQ6da-15" target="IVAJbTdzAA0MmZZfQ6da-26">
          <mxGeometry relative="1" as="geometry" />
        </mxCell>
        <mxCell id="IVAJbTdzAA0MmZZfQ6da-15" value="" style="rounded=1;whiteSpace=wrap;html=1;fillColor=#dae8fc;strokeColor=#6c8ebf;" vertex="1" parent="1">
          <mxGeometry x="400" y="520" width="120" height="40" as="geometry" />
        </mxCell>
        <mxCell id="IVAJbTdzAA0MmZZfQ6da-16" value="CLEANUP" style="text;html=1;align=center;verticalAlign=middle;resizable=0;points=[];autosize=1;strokeColor=none;fillColor=none;" vertex="1" parent="1">
          <mxGeometry x="420" y="525" width="80" height="30" as="geometry" />
        </mxCell>
        <mxCell id="IVAJbTdzAA0MmZZfQ6da-21" value="" style="rounded=1;whiteSpace=wrap;html=1;fillColor=#dae8fc;strokeColor=#6c8ebf;" vertex="1" parent="1">
          <mxGeometry x="400" y="600" width="120" height="40" as="geometry" />
        </mxCell>
        <mxCell id="IVAJbTdzAA0MmZZfQ6da-23" value="DONE" style="text;html=1;align=center;verticalAlign=middle;resizable=0;points=[];autosize=1;strokeColor=none;fillColor=none;" vertex="1" parent="1">
          <mxGeometry x="430" y="605" width="60" height="30" as="geometry" />
        </mxCell>
        <mxCell id="IVAJbTdzAA0MmZZfQ6da-33" style="edgeStyle=orthogonalEdgeStyle;curved=1;rounded=0;orthogonalLoop=1;jettySize=auto;html=1;entryX=0.5;entryY=0;entryDx=0;entryDy=0;exitX=1;exitY=0.5;exitDx=0;exitDy=0;" edge="1" parent="1" source="IVAJbTdzAA0MmZZfQ6da-1" target="IVAJbTdzAA0MmZZfQ6da-1">
          <mxGeometry relative="1" as="geometry">
            <Array as="points">
              <mxPoint x="540" y="140" />
              <mxPoint x="540" y="90" />
              <mxPoint x="460" y="90" />
            </Array>
          </mxGeometry>
        </mxCell>
        <mxCell id="IVAJbTdzAA0MmZZfQ6da-36" style="edgeStyle=orthogonalEdgeStyle;curved=1;rounded=0;orthogonalLoop=1;jettySize=auto;html=1;entryX=1;entryY=0.5;entryDx=0;entryDy=0;exitX=0.51;exitY=0.993;exitDx=0;exitDy=0;exitPerimeter=0;" edge="1" parent="1" source="IVAJbTdzAA0MmZZfQ6da-19" target="IVAJbTdzAA0MmZZfQ6da-15">
          <mxGeometry relative="1" as="geometry">
            <mxPoint x="741" y="440" as="sourcePoint" />
          </mxGeometry>
        </mxCell>
        <mxCell id="IVAJbTdzAA0MmZZfQ6da-41" style="edgeStyle=orthogonalEdgeStyle;curved=1;rounded=0;orthogonalLoop=1;jettySize=auto;html=1;entryX=0;entryY=0.5;entryDx=0;entryDy=0;exitX=0.5;exitY=0;exitDx=0;exitDy=0;" edge="1" parent="1" source="IVAJbTdzAA0MmZZfQ6da-26" target="IVAJbTdzAA0MmZZfQ6da-1">
          <mxGeometry relative="1" as="geometry" />
        </mxCell>
        <mxCell id="IVAJbTdzAA0MmZZfQ6da-42" value="1" style="text;html=1;align=center;verticalAlign=middle;resizable=0;points=[];autosize=1;strokeColor=none;fillColor=none;" vertex="1" parent="1">
          <mxGeometry x="465" y="165" width="30" height="30" as="geometry" />
        </mxCell>
        <mxCell id="IVAJbTdzAA0MmZZfQ6da-43" value="2" style="text;html=1;align=center;verticalAlign=middle;resizable=0;points=[];autosize=1;strokeColor=none;fillColor=none;" vertex="1" parent="1">
          <mxGeometry x="320" y="235" width="30" height="30" as="geometry" />
        </mxCell>
        <mxCell id="IVAJbTdzAA0MmZZfQ6da-44" value="3" style="text;html=1;align=center;verticalAlign=middle;resizable=0;points=[];autosize=1;strokeColor=none;fillColor=none;" vertex="1" parent="1">
          <mxGeometry x="530" y="90" width="30" height="30" as="geometry" />
        </mxCell>
        <mxCell id="IVAJbTdzAA0MmZZfQ6da-45" value="4" style="text;html=1;align=center;verticalAlign=middle;resizable=0;points=[];autosize=1;strokeColor=none;fillColor=none;" vertex="1" parent="1">
          <mxGeometry x="465" y="245" width="30" height="30" as="geometry" />
        </mxCell>
        <mxCell id="IVAJbTdzAA0MmZZfQ6da-46" value="5" style="text;html=1;align=center;verticalAlign=middle;resizable=0;points=[];autosize=1;strokeColor=none;fillColor=none;" vertex="1" parent="1">
          <mxGeometry x="580" y="215" width="30" height="30" as="geometry" />
        </mxCell>
        <mxCell id="IVAJbTdzAA0MmZZfQ6da-47" value="6" style="text;html=1;align=center;verticalAlign=middle;resizable=0;points=[];autosize=1;strokeColor=none;fillColor=none;" vertex="1" parent="1">
          <mxGeometry x="465" y="325" width="30" height="30" as="geometry" />
        </mxCell>
        <mxCell id="IVAJbTdzAA0MmZZfQ6da-48" value="7" style="text;html=1;align=center;verticalAlign=middle;resizable=0;points=[];autosize=1;strokeColor=none;fillColor=none;" vertex="1" parent="1">
          <mxGeometry x="580" y="290" width="30" height="30" as="geometry" />
        </mxCell>
        <mxCell id="IVAJbTdzAA0MmZZfQ6da-49" value="8" style="text;html=1;align=center;verticalAlign=middle;resizable=0;points=[];autosize=1;strokeColor=none;fillColor=none;" vertex="1" parent="1">
          <mxGeometry x="465" y="405" width="30" height="30" as="geometry" />
        </mxCell>
        <mxCell id="IVAJbTdzAA0MmZZfQ6da-50" value="9" style="text;html=1;align=center;verticalAlign=middle;resizable=0;points=[];autosize=1;strokeColor=none;fillColor=none;" vertex="1" parent="1">
          <mxGeometry x="580" y="360" width="30" height="30" as="geometry" />
        </mxCell>
        <mxCell id="IVAJbTdzAA0MmZZfQ6da-51" value="9" style="text;html=1;align=center;verticalAlign=middle;resizable=0;points=[];autosize=1;strokeColor=none;fillColor=none;" vertex="1" parent="1">
          <mxGeometry x="465" y="485" width="30" height="30" as="geometry" />
        </mxCell>
        <mxCell id="IVAJbTdzAA0MmZZfQ6da-52" value="10" style="text;html=1;align=center;verticalAlign=middle;resizable=0;points=[];autosize=1;strokeColor=none;fillColor=none;" vertex="1" parent="1">
          <mxGeometry x="535" y="430" width="40" height="30" as="geometry" />
        </mxCell>
        <mxCell id="IVAJbTdzAA0MmZZfQ6da-53" value="12" style="text;html=1;align=center;verticalAlign=middle;resizable=0;points=[];autosize=1;strokeColor=none;fillColor=none;" vertex="1" parent="1">
          <mxGeometry x="590" y="500" width="40" height="30" as="geometry" />
        </mxCell>
        <mxCell id="IVAJbTdzAA0MmZZfQ6da-54" value="11" style="text;html=1;align=center;verticalAlign=middle;resizable=0;points=[];autosize=1;strokeColor=none;fillColor=none;" vertex="1" parent="1">
          <mxGeometry x="465" y="566" width="30" height="26" as="geometry" />
        </mxCell>
        <mxCell id="IVAJbTdzAA0MmZZfQ6da-55" value="13" style="text;html=1;align=center;verticalAlign=middle;resizable=0;points=[];autosize=1;strokeColor=none;fillColor=none;" vertex="1" parent="1">
          <mxGeometry x="305" y="512" width="31" height="26" as="geometry" />
        </mxCell>
        <mxCell id="IVAJbTdzAA0MmZZfQ6da-57" value="14" style="text;html=1;align=center;verticalAlign=middle;resizable=0;points=[];autosize=1;strokeColor=none;fillColor=none;" vertex="1" parent="1">
          <mxGeometry x="235" y="312" width="31" height="26" as="geometry" />
        </mxCell>
        <mxCell id="IVAJbTdzAA0MmZZfQ6da-18" value="" style="rounded=1;whiteSpace=wrap;html=1;fillColor=#f8cecc;strokeColor=#b85450;" vertex="1" parent="1">
          <mxGeometry x="600" y="440" width="120" height="40" as="geometry" />
        </mxCell>
        <mxCell id="IVAJbTdzAA0MmZZfQ6da-19" value="SOCKET&lt;br&gt;INVALIDATE" style="text;html=1;align=center;verticalAlign=middle;resizable=0;points=[];autosize=1;strokeColor=none;fillColor=none;" vertex="1" parent="1">
          <mxGeometry x="615" y="440" width="90" height="40" as="geometry" />
        </mxCell>
        <mxCell id="IVAJbTdzAA0MmZZfQ6da-26" value="" style="rounded=1;whiteSpace=wrap;html=1;fillColor=#f8cecc;strokeColor=#b85450;" vertex="1" parent="1">
          <mxGeometry x="160" y="520" width="120" height="40" as="geometry" />
        </mxCell>
        <mxCell id="IVAJbTdzAA0MmZZfQ6da-27" value="RETRYWAIT" style="text;html=1;align=center;verticalAlign=middle;resizable=0;points=[];autosize=1;strokeColor=none;fillColor=none;" vertex="1" parent="1">
          <mxGeometry x="175" y="525" width="90" height="30" as="geometry" />
        </mxCell>
      </root>
    </mxGraphModel>
  </diagram>
</mxfile>
